%TF.GenerationSoftware,KiCad,Pcbnew,10.0.0*%
%TF.CreationDate,2026-04-11T18:48:11+05:30*%
%TF.ProjectId,ZAP-010A,5a41502d-3031-4304-912e-6b696361645f,rev?*%
%TF.SameCoordinates,Original*%
%TF.FileFunction,Soldermask,Bot*%
%TF.FilePolarity,Negative*%
%FSLAX46Y46*%
G04 Gerber Fmt 4.6, Leading zero omitted, Abs format (unit mm)*
G04 Created by KiCad (PCBNEW 10.0.0) date 2026-04-11 18:48:11*
%MOMM*%
%LPD*%
G01*
G04 APERTURE LIST*
G04 Aperture macros list*
%AMRoundRect*
0 Rectangle with rounded corners*
0 $1 Rounding radius*
0 $2 $3 $4 $5 $6 $7 $8 $9 X,Y pos of 4 corners*
0 Add a 4 corners polygon primitive as box body*
4,1,4,$2,$3,$4,$5,$6,$7,$8,$9,$2,$3,0*
0 Add four circle primitives for the rounded corners*
1,1,$1+$1,$2,$3*
1,1,$1+$1,$4,$5*
1,1,$1+$1,$6,$7*
1,1,$1+$1,$8,$9*
0 Add four rect primitives between the rounded corners*
20,1,$1+$1,$2,$3,$4,$5,0*
20,1,$1+$1,$4,$5,$6,$7,0*
20,1,$1+$1,$6,$7,$8,$9,0*
20,1,$1+$1,$8,$9,$2,$3,0*%
G04 Aperture macros list end*
%ADD10C,1.400000*%
%ADD11C,2.000000*%
%ADD12RoundRect,0.250000X0.600000X0.750000X-0.600000X0.750000X-0.600000X-0.750000X0.600000X-0.750000X0*%
%ADD13O,1.700000X2.000000*%
%ADD14RoundRect,0.250001X1.149999X1.149999X-1.149999X1.149999X-1.149999X-1.149999X1.149999X-1.149999X0*%
%ADD15C,2.800000*%
%ADD16C,2.500000*%
%ADD17RoundRect,0.250000X1.000000X-1.000000X1.000000X1.000000X-1.000000X1.000000X-1.000000X-1.000000X0*%
%ADD18R,1.800000X1.800000*%
%ADD19C,1.800000*%
%ADD20C,1.300000*%
%ADD21C,1.000000*%
%ADD22R,1.700000X1.700000*%
%ADD23C,1.700000*%
%ADD24C,0.650000*%
%ADD25O,2.100000X1.000000*%
%ADD26O,1.600000X1.000000*%
%ADD27C,3.000000*%
G04 APERTURE END LIST*
D10*
%TO.C,R1*%
X130400000Y-59100000D03*
X130400000Y-54020000D03*
%TD*%
D11*
%TO.C,SW4*%
X77850000Y-95700000D03*
X77850000Y-89200000D03*
X82350000Y-95700000D03*
X82350000Y-89200000D03*
%TD*%
%TO.C,SW5*%
X86400000Y-95700000D03*
X86400000Y-89200000D03*
X90900000Y-95700000D03*
X90900000Y-89200000D03*
%TD*%
%TO.C,C1*%
X136475000Y-61950000D03*
X136475000Y-51950000D03*
%TD*%
D12*
%TO.C,PS1*%
X150297500Y-82100000D03*
D13*
X150297500Y-76100000D03*
X116697500Y-88100000D03*
X116697500Y-70100000D03*
%TD*%
D14*
%TO.C,J1*%
X145500000Y-45050000D03*
D15*
X140500000Y-45050000D03*
X135500000Y-45050000D03*
X130500000Y-45050000D03*
%TD*%
D16*
%TO.C,K1*%
X118750000Y-58450000D03*
X112750000Y-44250000D03*
X124750000Y-44250000D03*
D17*
X112750000Y-56450000D03*
D16*
X124750000Y-56450000D03*
%TD*%
D18*
%TO.C,D6*%
X52680000Y-82800000D03*
D19*
X55220000Y-82800000D03*
%TD*%
%TO.C,RV1*%
X143300000Y-60700000D03*
X146000000Y-53200000D03*
%TD*%
D18*
%TO.C,D1*%
X52680000Y-74550000D03*
D19*
X55220000Y-74550000D03*
%TD*%
D18*
%TO.C,D5*%
X52680000Y-91050000D03*
D19*
X55220000Y-91050000D03*
%TD*%
D11*
%TO.C,SW1*%
X60750000Y-95700000D03*
X60750000Y-89200000D03*
X65250000Y-95700000D03*
X65250000Y-89200000D03*
%TD*%
D20*
%TO.C,BT1*%
X81150000Y-75550000D03*
D21*
X88650000Y-75550000D03*
%TD*%
D22*
%TO.C,J3*%
X57460000Y-48450000D03*
D23*
X60000000Y-48450000D03*
X62540000Y-48450000D03*
X65080000Y-48450000D03*
%TD*%
D24*
%TO.C,J2*%
X57300000Y-56120000D03*
X57300000Y-61900000D03*
D25*
X57800000Y-54690000D03*
D26*
X53620000Y-54690000D03*
D25*
X57800000Y-63330000D03*
D26*
X53620000Y-63330000D03*
%TD*%
D11*
%TO.C,F1*%
X152300000Y-47810000D03*
X152290000Y-52890000D03*
%TD*%
%TO.C,SW3*%
X69300000Y-95700000D03*
X69300000Y-89200000D03*
X73800000Y-95700000D03*
X73800000Y-89200000D03*
%TD*%
%TO.C,SW6*%
X94950000Y-95700000D03*
X94950000Y-89200000D03*
X99450000Y-95700000D03*
X99450000Y-89200000D03*
%TD*%
D27*
X118750000Y-56682234D02*
X127181234Y-48251000D01*
X127181234Y-48251000D02*
X132299000Y-48251000D01*
X118750000Y-58450000D02*
X118750000Y-56682234D01*
X132299000Y-48251000D02*
X135500000Y-45050000D01*
X124750000Y-44250000D02*
X129700000Y-44250000D01*
M02*
