%TF.GenerationSoftware,KiCad,Pcbnew,10.0.0*%
%TF.CreationDate,2026-04-11T18:48:11+05:30*%
%TF.ProjectId,ZAP-010A,5a41502d-3031-4304-912e-6b696361645f,rev?*%
%TF.SameCoordinates,Original*%
%TF.FileFunction,Paste,Top*%
%TF.FilePolarity,Positive*%
%FSLAX46Y46*%
G04 Gerber Fmt 4.6, Leading zero omitted, Abs format (unit mm)*
G04 Created by KiCad (PCBNEW 10.0.0) date 2026-04-11 18:48:11*
%MOMM*%
%LPD*%
G01*
G04 APERTURE LIST*
G04 Aperture macros list*
%AMRoundRect*
0 Rectangle with rounded corners*
0 $1 Rounding radius*
0 $2 $3 $4 $5 $6 $7 $8 $9 X,Y pos of 4 corners*
0 Add a 4 corners polygon primitive as box body*
4,1,4,$2,$3,$4,$5,$6,$7,$8,$9,$2,$3,0*
0 Add four circle primitives for the rounded corners*
1,1,$1+$1,$2,$3*
1,1,$1+$1,$4,$5*
1,1,$1+$1,$6,$7*
1,1,$1+$1,$8,$9*
0 Add four rect primitives between the rounded corners*
20,1,$1+$1,$2,$3,$4,$5,0*
20,1,$1+$1,$4,$5,$6,$7,0*
20,1,$1+$1,$6,$7,$8,$9,0*
20,1,$1+$1,$8,$9,$2,$3,0*%
G04 Aperture macros list end*
%ADD10R,1.500000X0.900000*%
%ADD11R,0.900000X1.500000*%
%ADD12R,0.900000X0.900000*%
%ADD13RoundRect,0.237500X-0.237500X0.287500X-0.237500X-0.287500X0.237500X-0.287500X0.237500X0.287500X0*%
%ADD14RoundRect,0.200000X-0.200000X-0.275000X0.200000X-0.275000X0.200000X0.275000X-0.200000X0.275000X0*%
%ADD15RoundRect,0.225000X0.250000X-0.225000X0.250000X0.225000X-0.250000X0.225000X-0.250000X-0.225000X0*%
%ADD16RoundRect,0.200000X-0.275000X0.200000X-0.275000X-0.200000X0.275000X-0.200000X0.275000X0.200000X0*%
%ADD17RoundRect,0.225000X-0.225000X-0.250000X0.225000X-0.250000X0.225000X0.250000X-0.225000X0.250000X0*%
%ADD18RoundRect,0.375000X-0.375000X0.625000X-0.375000X-0.625000X0.375000X-0.625000X0.375000X0.625000X0*%
%ADD19RoundRect,0.500000X-1.400000X0.500000X-1.400000X-0.500000X1.400000X-0.500000X1.400000X0.500000X0*%
%ADD20RoundRect,0.250000X0.475000X-0.250000X0.475000X0.250000X-0.475000X0.250000X-0.475000X-0.250000X0*%
%ADD21RoundRect,0.200000X0.800000X-0.200000X0.800000X0.200000X-0.800000X0.200000X-0.800000X-0.200000X0*%
%ADD22R,2.311400X2.311400*%
%ADD23RoundRect,0.150000X-0.587500X-0.150000X0.587500X-0.150000X0.587500X0.150000X-0.587500X0.150000X0*%
%ADD24RoundRect,0.150000X0.150000X-0.587500X0.150000X0.587500X-0.150000X0.587500X-0.150000X-0.587500X0*%
%ADD25RoundRect,0.200000X0.200000X0.275000X-0.200000X0.275000X-0.200000X-0.275000X0.200000X-0.275000X0*%
%ADD26R,4.300000X2.300000*%
%ADD27R,3.660000X2.300000*%
%ADD28RoundRect,0.225000X0.225000X0.375000X-0.225000X0.375000X-0.225000X-0.375000X0.225000X-0.375000X0*%
%ADD29RoundRect,0.225000X0.375000X-0.225000X0.375000X0.225000X-0.375000X0.225000X-0.375000X-0.225000X0*%
%ADD30RoundRect,0.150000X-0.875000X-0.150000X0.875000X-0.150000X0.875000X0.150000X-0.875000X0.150000X0*%
%ADD31RoundRect,0.200000X0.275000X-0.200000X0.275000X0.200000X-0.275000X0.200000X-0.275000X-0.200000X0*%
%ADD32RoundRect,0.093750X-0.156250X-0.093750X0.156250X-0.093750X0.156250X0.093750X-0.156250X0.093750X0*%
%ADD33RoundRect,0.075000X-0.250000X-0.075000X0.250000X-0.075000X0.250000X0.075000X-0.250000X0.075000X0*%
%ADD34RoundRect,0.150000X-0.500000X0.150000X-0.500000X-0.150000X0.500000X-0.150000X0.500000X0.150000X0*%
%ADD35RoundRect,0.075000X-0.575000X0.075000X-0.575000X-0.075000X0.575000X-0.075000X0.575000X0.075000X0*%
%ADD36RoundRect,0.225000X-0.225000X-0.375000X0.225000X-0.375000X0.225000X0.375000X-0.225000X0.375000X0*%
%ADD37RoundRect,0.250000X1.000000X-1.500000X1.000000X1.500000X-1.000000X1.500000X-1.000000X-1.500000X0*%
%ADD38RoundRect,0.225000X0.225000X0.250000X-0.225000X0.250000X-0.225000X-0.250000X0.225000X-0.250000X0*%
%ADD39RoundRect,0.250000X-0.250000X-0.475000X0.250000X-0.475000X0.250000X0.475000X-0.250000X0.475000X0*%
%ADD40RoundRect,0.250000X0.250000X0.475000X-0.250000X0.475000X-0.250000X-0.475000X0.250000X-0.475000X0*%
G04 APERTURE END LIST*
D10*
%TO.C,U2*%
X94850000Y-47280000D03*
X94850000Y-48550000D03*
X94850000Y-49820000D03*
X94850000Y-51090000D03*
X94850000Y-52360000D03*
X94850000Y-53630000D03*
X94850000Y-54900000D03*
X94850000Y-56170000D03*
X94850000Y-57440000D03*
X94850000Y-58710000D03*
X94850000Y-59980000D03*
X94850000Y-61250000D03*
X94850000Y-62520000D03*
X94850000Y-63790000D03*
D11*
X93085000Y-65040000D03*
X91815000Y-65040000D03*
X90545000Y-65040000D03*
X89275000Y-65040000D03*
X88005000Y-65040000D03*
X86735000Y-65040000D03*
X85465000Y-65040000D03*
X84195000Y-65040000D03*
X82925000Y-65040000D03*
X81655000Y-65040000D03*
X80385000Y-65040000D03*
X79115000Y-65040000D03*
D10*
X77350000Y-63790000D03*
X77350000Y-62520000D03*
X77350000Y-61250000D03*
X77350000Y-59980000D03*
X77350000Y-58710000D03*
X77350000Y-57440000D03*
X77350000Y-56170000D03*
X77350000Y-54900000D03*
X77350000Y-53630000D03*
X77350000Y-52360000D03*
X77350000Y-51090000D03*
X77350000Y-49820000D03*
X77350000Y-48550000D03*
X77350000Y-47280000D03*
D12*
X86000000Y-56400000D03*
X86000000Y-55000000D03*
X86000000Y-53600000D03*
X84600000Y-56400000D03*
X84600000Y-55000000D03*
X84600000Y-53600000D03*
X83200000Y-56400000D03*
X83200000Y-55000000D03*
X83200000Y-53600000D03*
%TD*%
D13*
%TO.C,D4*%
X113250000Y-62450000D03*
X113250000Y-64200000D03*
%TD*%
D14*
%TO.C,R11*%
X52220000Y-87700000D03*
X53870000Y-87700000D03*
%TD*%
D15*
%TO.C,C8*%
X71716667Y-48450000D03*
X71716667Y-46900000D03*
%TD*%
D16*
%TO.C,R8*%
X105350000Y-64350000D03*
X105350000Y-66000000D03*
%TD*%
%TO.C,R20*%
X65950000Y-51300000D03*
X65950000Y-52950000D03*
%TD*%
%TO.C,R18*%
X68600000Y-66200000D03*
X68600000Y-67850000D03*
%TD*%
D17*
%TO.C,C14*%
X57145000Y-66010000D03*
X58695000Y-66010000D03*
%TD*%
D18*
%TO.C,U1*%
X110300000Y-88500000D03*
X108000000Y-88500000D03*
D19*
X108000000Y-94800000D03*
D18*
X105700000Y-88500000D03*
%TD*%
D20*
%TO.C,C7*%
X69750000Y-48625000D03*
X69750000Y-46725000D03*
%TD*%
D21*
%TO.C,SW2*%
X99400000Y-77300000D03*
X99400000Y-73100000D03*
%TD*%
D15*
%TO.C,C10*%
X75150000Y-48450000D03*
X75150000Y-46900000D03*
%TD*%
D14*
%TO.C,R7*%
X69675000Y-60300000D03*
X71325000Y-60300000D03*
%TD*%
D20*
%TO.C,C16*%
X58000000Y-74775000D03*
X58000000Y-72875000D03*
%TD*%
D14*
%TO.C,R12*%
X52220000Y-79375000D03*
X53870000Y-79375000D03*
%TD*%
D16*
%TO.C,R19*%
X62500000Y-51300000D03*
X62500000Y-52950000D03*
%TD*%
D22*
%TO.C,LS1*%
X100499998Y-55350000D03*
X107600000Y-55350000D03*
X100499998Y-48249998D03*
X107600000Y-48249998D03*
%TD*%
D14*
%TO.C,R14*%
X79850000Y-85750000D03*
X81500000Y-85750000D03*
%TD*%
D23*
%TO.C,Q2*%
X103775000Y-60300000D03*
X103775000Y-62200000D03*
X105650000Y-61250000D03*
%TD*%
D14*
%TO.C,R6*%
X69675000Y-58500000D03*
X71325000Y-58500000D03*
%TD*%
D17*
%TO.C,C11*%
X62225000Y-85170000D03*
X63775000Y-85170000D03*
%TD*%
D16*
%TO.C,R17*%
X70650000Y-66200000D03*
X70650000Y-67850000D03*
%TD*%
D24*
%TO.C,Q1*%
X108000000Y-62887500D03*
X109900000Y-62887500D03*
X108950000Y-61012500D03*
%TD*%
D15*
%TO.C,C13*%
X71800000Y-53100000D03*
X71800000Y-51550000D03*
%TD*%
D25*
%TO.C,R2*%
X53870000Y-71050000D03*
X52220000Y-71050000D03*
%TD*%
D16*
%TO.C,R23*%
X73350000Y-56850000D03*
X73350000Y-58500000D03*
%TD*%
D25*
%TO.C,R26*%
X101175000Y-58000000D03*
X99525000Y-58000000D03*
%TD*%
D26*
%TO.C,BT1*%
X92790000Y-75550000D03*
D27*
X77320000Y-75550000D03*
%TD*%
D16*
%TO.C,R24*%
X75050000Y-56875000D03*
X75050000Y-58525000D03*
%TD*%
D14*
%TO.C,R10*%
X117300000Y-63200000D03*
X118950000Y-63200000D03*
%TD*%
D15*
%TO.C,C9*%
X73433333Y-48450000D03*
X73433333Y-46900000D03*
%TD*%
D28*
%TO.C,D3*%
X124750000Y-62850000D03*
X121450000Y-62850000D03*
%TD*%
D29*
%TO.C,D2*%
X61695000Y-69310000D03*
X61695000Y-66010000D03*
%TD*%
D30*
%TO.C,U4*%
X63500000Y-72880000D03*
X63500000Y-74150000D03*
X63500000Y-75420000D03*
X63500000Y-76690000D03*
X63500000Y-77960000D03*
X63500000Y-79230000D03*
X63500000Y-80500000D03*
X63500000Y-81770000D03*
X72800000Y-81770000D03*
X72800000Y-80500000D03*
X72800000Y-79230000D03*
X72800000Y-77960000D03*
X72800000Y-76690000D03*
X72800000Y-75420000D03*
X72800000Y-74150000D03*
X72800000Y-72880000D03*
%TD*%
D14*
%TO.C,R4*%
X61450000Y-57750000D03*
X63100000Y-57750000D03*
%TD*%
%TO.C,R5*%
X61450000Y-60700000D03*
X63100000Y-60700000D03*
%TD*%
D15*
%TO.C,C15*%
X60500000Y-74600000D03*
X60500000Y-73050000D03*
%TD*%
D31*
%TO.C,R21*%
X60650000Y-52950000D03*
X60650000Y-51300000D03*
%TD*%
D32*
%TO.C,U3*%
X64950000Y-58675000D03*
D33*
X64875000Y-59212500D03*
D32*
X64950000Y-59750000D03*
X66650000Y-59750000D03*
D33*
X66725000Y-59212500D03*
D32*
X66650000Y-58675000D03*
%TD*%
D34*
%TO.C,J2*%
X58440000Y-55810000D03*
X58440000Y-56610000D03*
D35*
X58440000Y-57760000D03*
X58440000Y-58760000D03*
X58440000Y-59260000D03*
X58440000Y-60260000D03*
D34*
X58440000Y-61410000D03*
X58440000Y-62210000D03*
X58440000Y-62210000D03*
X58440000Y-61410000D03*
D35*
X58440000Y-60760000D03*
X58440000Y-59760000D03*
X58440000Y-58260000D03*
X58440000Y-57260000D03*
D34*
X58440000Y-56610000D03*
X58440000Y-55810000D03*
%TD*%
D36*
%TO.C,D7*%
X103350000Y-58250000D03*
X106650000Y-58250000D03*
%TD*%
D25*
%TO.C,R9*%
X109675000Y-65600000D03*
X108025000Y-65600000D03*
%TD*%
D17*
%TO.C,C6*%
X107550000Y-83750000D03*
X109100000Y-83750000D03*
%TD*%
D37*
%TO.C,C2*%
X107850000Y-76957500D03*
X107850000Y-70457500D03*
%TD*%
D14*
%TO.C,R16*%
X98250000Y-86050000D03*
X99900000Y-86050000D03*
%TD*%
D31*
%TO.C,R25*%
X101750000Y-62100000D03*
X101750000Y-60450000D03*
%TD*%
D38*
%TO.C,C4*%
X105050000Y-83750000D03*
X103500000Y-83750000D03*
%TD*%
D15*
%TO.C,C12*%
X96300000Y-73975000D03*
X96300000Y-72425000D03*
%TD*%
D39*
%TO.C,C5*%
X107600000Y-80500000D03*
X109500000Y-80500000D03*
%TD*%
D31*
%TO.C,R22*%
X67750000Y-52950000D03*
X67750000Y-51300000D03*
%TD*%
D14*
%TO.C,R13*%
X70850000Y-85750000D03*
X72500000Y-85750000D03*
%TD*%
%TO.C,R15*%
X89200000Y-85950000D03*
X90850000Y-85950000D03*
%TD*%
D40*
%TO.C,C3*%
X105000000Y-80500000D03*
X103100000Y-80500000D03*
%TD*%
D16*
%TO.C,R3*%
X73700000Y-51500000D03*
X73700000Y-53150000D03*
%TD*%
M02*
