M48
; DRILL file KiCad 10.0.0 date 2026-04-11T18:48:03
; FORMAT={-:-/ absolute / metric / decimal}
; #@! TF.CreationDate,2026-04-11T18:48:03+05:30
; #@! TF.GenerationSoftware,Kicad,Pcbnew,10.0.0
; #@! TF.FileFunction,Plated,1,2,PTH
FMAT,2
METRIC
; #@! TA.AperFunction,Plated,PTH,ComponentDrill
T1C0.200
; #@! TA.AperFunction,Plated,PTH,ViaDrill
T2C0.300
; #@! TA.AperFunction,Plated,PTH,ComponentDrill
T3C0.600
; #@! TA.AperFunction,Plated,PTH,ComponentDrill
T4C0.700
; #@! TA.AperFunction,Plated,PTH,ComponentDrill
T5C0.800
; #@! TA.AperFunction,Plated,PTH,ComponentDrill
T6C0.900
; #@! TA.AperFunction,Plated,PTH,ComponentDrill
T7C1.000
; #@! TA.AperFunction,Plated,PTH,ComponentDrill
T8C1.100
; #@! TA.AperFunction,Plated,PTH,ComponentDrill
T9C1.300
%
G90
G05
T1
X83.2Y-54.3
X83.2Y-55.7
X83.9Y-53.6
X83.9Y-55.0
X83.9Y-56.4
X84.6Y-54.3
X84.6Y-55.7
X85.3Y-53.6
X85.3Y-55.0
X85.3Y-56.4
X86.0Y-54.3
X86.0Y-55.7
T2
X55.2Y-79.35
X59.55Y-79.6
X60.2Y-55.5
X60.35Y-57.15
X60.95Y-62.7
X62.9Y-56.7
X63.25Y-53.75
X66.75Y-53.75
X67.05Y-83.75
X69.05Y-65.3
X71.6Y-63.2
X75.05Y-55.55
X75.65Y-53.15
X75.65Y-84.7
X78.35Y-69.15
X78.85Y-55.35
X78.9Y-62.5
X79.45Y-49.8
X79.45Y-56.5
X81.1Y-87.05
X81.65Y-62.65
X83.05Y-79.3
X99.3Y-56.85
X104.6Y-58.25
T4
X130.4Y-54.02
X130.4Y-59.1
T5
X143.3Y-60.7
X146.0Y-53.2
T6
X52.68Y-74.55
X52.68Y-82.8
X52.68Y-91.05
X55.22Y-74.55
X55.22Y-82.8
X55.22Y-91.05
T7
X57.46Y-48.45
X60.0Y-48.45
X62.54Y-48.45
X65.08Y-48.45
X116.697Y-70.1
X116.697Y-88.1
X136.475Y-51.95
X136.475Y-61.95
X150.297Y-76.1
X150.297Y-82.1
X152.29Y-52.89
X152.3Y-47.81
T8
X60.75Y-89.2
X60.75Y-95.7
X65.25Y-89.2
X65.25Y-95.7
X69.3Y-89.2
X69.3Y-95.7
X73.8Y-89.2
X73.8Y-95.7
X77.85Y-89.2
X77.85Y-95.7
X82.35Y-89.2
X82.35Y-95.7
X86.4Y-89.2
X86.4Y-95.7
X90.9Y-89.2
X90.9Y-95.7
X94.95Y-89.2
X94.95Y-95.7
X99.45Y-89.2
X99.45Y-95.7
T9
X112.75Y-44.25
X112.75Y-56.45
X118.75Y-58.45
X124.75Y-44.25
X124.75Y-56.45
X130.5Y-45.05
X135.5Y-45.05
X140.5Y-45.05
X145.5Y-45.05
T3
G00X53.92Y-54.69
M15
G01X53.32Y-54.69
M16
G05
G00X53.92Y-63.33
M15
G01X53.32Y-63.33
M16
G05
G00X58.35Y-54.69
M15
G01X57.25Y-54.69
M16
G05
G00X58.35Y-63.33
M15
G01X57.25Y-63.33
M16
G05
M30
