%TF.GenerationSoftware,KiCad,Pcbnew,10.0.0*%
%TF.CreationDate,2026-04-11T18:48:11+05:30*%
%TF.ProjectId,ZAP-010A,5a41502d-3031-4304-912e-6b696361645f,rev?*%
%TF.SameCoordinates,Original*%
%TF.FileFunction,Profile,NP*%
%FSLAX46Y46*%
G04 Gerber Fmt 4.6, Leading zero omitted, Abs format (unit mm)*
G04 Created by KiCad (PCBNEW 10.0.0) date 2026-04-11 18:48:11*
%MOMM*%
%LPD*%
G01*
G04 APERTURE LIST*
%TA.AperFunction,Profile*%
%ADD10C,0.050000*%
%TD*%
G04 APERTURE END LIST*
D10*
X152500000Y-40000000D02*
X52500000Y-40000000D01*
X155000000Y-95500000D02*
X155000000Y-42500000D01*
X115500000Y-60250000D02*
X122000000Y-60250000D01*
X152500000Y-40000000D02*
G75*
G02*
X155000000Y-42500000I0J-2500000D01*
G01*
X50000000Y-42500000D02*
G75*
G02*
X52500000Y-40000000I2500000J0D01*
G01*
X54000000Y-95500000D02*
G75*
G02*
X51000000Y-95500000I-1500000J0D01*
G01*
X51000000Y-95500000D02*
G75*
G02*
X54000000Y-95500000I1500000J0D01*
G01*
X50000000Y-42500000D02*
X50000000Y-95500000D01*
X114500000Y-54000000D02*
X115500000Y-54000000D01*
X123000000Y-61250000D02*
X123000000Y-61000000D01*
X122000000Y-56500000D02*
X123000000Y-56500000D01*
X123000000Y-61250000D02*
X114500000Y-61250000D01*
X52500000Y-98000000D02*
G75*
G02*
X50000000Y-95500000I0J2500000D01*
G01*
X154000000Y-95500000D02*
G75*
G02*
X151000000Y-95500000I-1500000J0D01*
G01*
X151000000Y-95500000D02*
G75*
G02*
X154000000Y-95500000I1500000J0D01*
G01*
X52500000Y-98000000D02*
X152500000Y-98000000D01*
X114500000Y-61000000D02*
X114500000Y-54000000D01*
X115500000Y-54000000D02*
X115500000Y-60000000D01*
X122000000Y-60000000D02*
X122000000Y-60250000D01*
X122000000Y-60000000D02*
X122000000Y-56500000D01*
X54000000Y-42500000D02*
G75*
G02*
X51000000Y-42500000I-1500000J0D01*
G01*
X51000000Y-42500000D02*
G75*
G02*
X54000000Y-42500000I1500000J0D01*
G01*
X114500000Y-61000000D02*
X114500000Y-61250000D01*
X123000000Y-56500000D02*
X123000000Y-61000000D01*
X115500000Y-60250000D02*
X115500000Y-60000000D01*
X155000000Y-95500000D02*
G75*
G02*
X152500000Y-98000000I-2500000J0D01*
G01*
M02*
